<svg width="0" height="0" xmlns="http://www.w3.org/2000/svg">
    <symbol id="trashcan" viewBox="0 0 448 512">
        <path fill="currentColor" d="M268 416h24a12 12 0 0 0 12-12V188a12 12 0 0 0-12-12h-24a12 12 0 0 0-12 12v216a12 12 0 0 0 12 12zM432 80h-82.41l-34-56.7A48 48 0 0 0 274.41 0H173.59a48 48 0 0 0-41.16 23.3L98.41 80H16A16 16 0 0 0 0 96v16a16 16 0 0 0 16 16h16v336a48 48 0 0 0 48 48h288a48 48 0 0 0 48-48V128h16a16 16 0 0 0 16-16V96a16 16 0 0 0-16-16zM171.84 50.91A6 6 0 0 1 177 48h94a6 6 0 0 1 5.15 2.91L293.61 80H154.39zM368 464H80V128h288zm-212-48h24a12 12 0 0 0 12-12V188a12 12 0 0 0-12-12h-24a12 12 0 0 0-12 12v216a12 12 0 0 0 12 12z"/>
    </symbol>
    <symbol id="plus" viewBox="0 0 448 512">
        <path fill="currentColor" d="M416 208H272V64c0-17.67-14.33-32-32-32h-32c-17.67 0-32 14.33-32 32v144H32c-17.67 0-32 14.33-32 32v32c0 17.67 14.33 32 32 32h144v144c0 17.67 14.33 32 32 32h32c17.67 0 32-14.33 32-32V304h144c17.67 0 32-14.33 32-32v-32c0-17.67-14.33-32-32-32z"/>
    </symbol>
    <symbol id="gear" viewBox="0 0 32 32" enable-background="new 0 0 32 32" >
        <path fill="currentColor" stroke="#000000" stroke-linejoin="round" stroke-miterlimit="10" stroke-width="2" d="M31,19v-6h-4.425   c-0.252-0.888-0.611-1.729-1.065-2.51L29,7l-4-4l-3.49,3.49C21.028,6.21,20.525,5.967,20,5.761V1h-8v4.761   c-0.525,0.205-1.028,0.449-1.51,0.728L7,3L3,7l3.49,3.49C6.036,11.271,5.676,12.112,5.425,13H1v6h4.425   c0.252,0.888,0.611,1.729,1.065,2.51L3,25l4,4l3.49-3.49c0.482,0.28,0.986,0.523,1.51,0.728V31h8v-4.761   c0.525-0.205,1.028-0.449,1.51-0.728L25,29l4-4l-3.49-3.49c0.454-0.781,0.813-1.622,1.065-2.51H31z" />
        <circle cx="16" cy="16" fill="currentColor" r="5" stroke="#000000" stroke-linejoin="round" stroke-miterlimit="10" stroke-width="2"/>
    </symbol>
    <symbol id="menu" viewBox="0 0 24 24" >
        <path fill="none" d="M0 0h24v24H0z"/>
        <path fill="currentColor" d="M3 4h18v2H3V4zm0 7h12v2H3v-2zm0 7h18v2H3v-2z"/>
    </symbol>
    <symbol id="edit" viewBox="0 0 24 24" fill="none" >
        <path fill="currentColor" d="M4 16L3.46967 15.4697C3.32902 15.6103 3.25 15.8011 3.25 16H4ZM17 3L17.5303 2.46967C17.2374 2.17678 16.7626 2.17678 16.4697 2.46967L17 3ZM21 7L21.5303 7.53033C21.8232 7.23744 21.8232 6.76256 21.5303 6.46967L21 7ZM8 20V20.75C8.19891 20.75 8.38968 20.671 8.53033 20.5303L8 20ZM4 20H3.25C3.25 20.4142 3.58579 20.75 4 20.75V20ZM12 19.25C11.5858 19.25 11.25 19.5858 11.25 20C11.25 20.4142 11.5858 20.75 12 20.75V19.25ZM20.5 20.75C20.9142 20.75 21.25 20.4142 21.25 20C21.25 19.5858 20.9142 19.25 20.5 19.25V20.75ZM4.53033 16.5303L17.5303 3.53033L16.4697 2.46967L3.46967 15.4697L4.53033 16.5303ZM16.4697 3.53033L20.4697 7.53033L21.5303 6.46967L17.5303 2.46967L16.4697 3.53033ZM20.4697 6.46967L7.46967 19.4697L8.53033 20.5303L21.5303 7.53033L20.4697 6.46967ZM8 19.25H4V20.75H8V19.25ZM4.75 20V16H3.25V20H4.75ZM13.4697 6.53033L17.4697 10.5303L18.5303 9.46967L14.5303 5.46967L13.4697 6.53033ZM12 20.75H20.5V19.25H12V20.75Z" />
    </symbol>
    <symbol id="x" viewBox="0 0 352 512">
        <path fill="currentColor" d="M242.72 256l100.07-100.07c12.28-12.28 12.28-32.19 0-44.48l-22.24-22.24c-12.28-12.28-32.19-12.28-44.48 0L176 189.28 75.93 89.21c-12.28-12.28-32.19-12.28-44.48 0L9.21 111.45c-12.28 12.28-12.28 32.19 0 44.48L109.28 256 9.21 356.07c-12.28 12.28-12.28 32.19 0 44.48l22.24 22.24c12.28 12.28 32.2 12.28 44.48 0L176 322.72l100.07 100.07c12.28 12.28 32.2 12.28 44.48 0l22.24-22.24c12.28-12.28 12.28-32.19 0-44.48L242.72 256z"/>
    </symbol>
    <symbol id="list" viewBox="0 0 512 512">
        <path fill="currentColor" d="M80 368H16a16 16 0 0 0-16 16v64a16 16 0 0 0 16 16h64a16 16 0 0 0 16-16v-64a16 16 0 0 0-16-16zm0-320H16A16 16 0 0 0 0 64v64a16 16 0 0 0 16 16h64a16 16 0 0 0 16-16V64a16 16 0 0 0-16-16zm0 160H16a16 16 0 0 0-16 16v64a16 16 0 0 0 16 16h64a16 16 0 0 0 16-16v-64a16 16 0 0 0-16-16zm416 176H176a16 16 0 0 0-16 16v32a16 16 0 0 0 16 16h320a16 16 0 0 0 16-16v-32a16 16 0 0 0-16-16zm0-320H176a16 16 0 0 0-16 16v32a16 16 0 0 0 16 16h320a16 16 0 0 0 16-16V80a16 16 0 0 0-16-16zm0 160H176a16 16 0 0 0-16 16v32a16 16 0 0 0 16 16h320a16 16 0 0 0 16-16v-32a16 16 0 0 0-16-16z"/>
    </symbol>
    <symbol id="check" viewBox="0 0 512 512">
        <path fill="currentColor" d="M173.898 439.404l-166.4-166.4c-9.997-9.997-9.997-26.206 0-36.204l36.203-36.204c9.997-9.998 26.207-9.998 36.204 0L192 312.69 432.095 72.596c9.997-9.997 26.207-9.997 36.204 0l36.203 36.204c9.997 9.997 9.997 26.206 0 36.204l-294.4 294.401c-9.998 9.997-26.207 9.997-36.204-.001z"/>
    </symbol>
</svg>
