<svg xmlns="http://www.w3.org/2000/svg">
    <symbol id="trashcan" width="24px" height="24px" viewBox="0 0 24 24"  fill="none" stroke="currentColor" stroke-width="2" stroke-linecap="round" stroke-linejoin="round">
        <polyline points="3 6 5 6 21 6"/>
        <path d="M19 6v14a2 2 0 0 1-2 2H7a2 2 0 0 1-2-2V6m3 0V4a2 2 0 0 1 2-2h4a2 2 0 0 1 2 2v2"/>
        <line x1="10" y1="11" x2="10" y2="17"/>
        <line x1="14" y1="11" x2="14" y2="17"/>
    </symbol>
    <symbol id="plus" width="24px" height="24px" viewBox="0 0 448 512">
        <path fill="currentColor" d="M416 208H272V64c0-17.67-14.33-32-32-32h-32c-17.67 0-32 14.33-32 32v144H32c-17.67 0-32 14.33-32 32v32c0 17.67 14.33 32 32 32h144v144c0 17.67 14.33 32 32 32h32c17.67 0 32-14.33 32-32V304h144c17.67 0 32-14.33 32-32v-32c0-17.67-14.33-32-32-32z"/>
    </symbol>
    <symbol id="gear" width="32px" height="32px" viewBox="0 0 32 32" enable-background="new 0 0 32 32" >
        <path fill="none" stroke="#000000" stroke-linejoin="round" stroke-miterlimit="10" stroke-width="2" d="M31,19v-6h-4.425   c-0.252-0.888-0.611-1.729-1.065-2.51L29,7l-4-4l-3.49,3.49C21.028,6.21,20.525,5.967,20,5.761V1h-8v4.761   c-0.525,0.205-1.028,0.449-1.51,0.728L7,3L3,7l3.49,3.49C6.036,11.271,5.676,12.112,5.425,13H1v6h4.425   c0.252,0.888,0.611,1.729,1.065,2.51L3,25l4,4l3.49-3.49c0.482,0.28,0.986,0.523,1.51,0.728V31h8v-4.761   c0.525-0.205,1.028-0.449,1.51-0.728L25,29l4-4l-3.49-3.49c0.454-0.781,0.813-1.622,1.065-2.51H31z" />
        <circle cx="16" cy="16" fill="none" r="5" stroke="#000000" stroke-linejoin="round" stroke-miterlimit="10" stroke-width="2"/>
    </symbol>
    <symbol id="menu" width="24px" height="24px" viewBox="0 0 24 24" >
        <path fill="none" d="M0 0h24v24H0z"/>
        <path d="M3 4h18v2H3V4zm0 7h12v2H3v-2zm0 7h18v2H3v-2z"/>
    </symbol>
    <symbol id="edit" width="24px" height="24px" viewBox="0 0 24 24" fill="none" >
        <path fill="#001A72" d="M4 16L3.46967 15.4697C3.32902 15.6103 3.25 15.8011 3.25 16H4ZM17 3L17.5303 2.46967C17.2374 2.17678 16.7626 2.17678 16.4697 2.46967L17 3ZM21 7L21.5303 7.53033C21.8232 7.23744 21.8232 6.76256 21.5303 6.46967L21 7ZM8 20V20.75C8.19891 20.75 8.38968 20.671 8.53033 20.5303L8 20ZM4 20H3.25C3.25 20.4142 3.58579 20.75 4 20.75V20ZM12 19.25C11.5858 19.25 11.25 19.5858 11.25 20C11.25 20.4142 11.5858 20.75 12 20.75V19.25ZM20.5 20.75C20.9142 20.75 21.25 20.4142 21.25 20C21.25 19.5858 20.9142 19.25 20.5 19.25V20.75ZM4.53033 16.5303L17.5303 3.53033L16.4697 2.46967L3.46967 15.4697L4.53033 16.5303ZM16.4697 3.53033L20.4697 7.53033L21.5303 6.46967L17.5303 2.46967L16.4697 3.53033ZM20.4697 6.46967L7.46967 19.4697L8.53033 20.5303L21.5303 7.53033L20.4697 6.46967ZM8 19.25H4V20.75H8V19.25ZM4.75 20V16H3.25V20H4.75ZM13.4697 6.53033L17.4697 10.5303L18.5303 9.46967L14.5303 5.46967L13.4697 6.53033ZM12 20.75H20.5V19.25H12V20.75Z" />
    </symbol>
</svg>
